<?xml version="1.0" standalone="no"?>
<!DOCTYPE svg PUBLIC "-//W3C//DTD SVG 20010904//EN"
 "http://www.w3.org/TR/2001/REC-SVG-20010904/DTD/svg10.dtd">
<svg version="1.0" xmlns="http://www.w3.org/2000/svg"
 width="200.000000pt" height="200.000000pt" viewBox="0 0 200.000000 200.000000"
 preserveAspectRatio="xMidYMid meet">
<metadata>
Created by potrace 1.16, written by Peter Selinger 2001-2019
</metadata>
<g transform="translate(0.000000,200.000000) scale(0.100000,-0.100000)"
fill="#333333" stroke="none">
<path d="M629 1779 c-31 -3 -62 -10 -70 -15 -8 -4 -32 -11 -54 -14 -45 -6 -43
0 -30 -115 4 -33 10 -69 15 -80 5 -11 14 -49 20 -84 9 -50 9 -69 -1 -88 -7
-12 -16 -23 -21 -23 -4 0 -8 -7 -8 -15 0 -8 -11 -34 -24 -57 -52 -95 -66 -159
-66 -301 0 -108 4 -142 20 -185 11 -29 20 -59 20 -68 0 -8 11 -30 25 -48 14
-18 25 -40 25 -49 0 -10 4 -17 10 -17 5 0 16 -12 24 -28 20 -39 132 -152 151
-152 8 0 15 -4 15 -8 0 -11 121 -79 156 -88 16 -4 39 -13 50 -21 31 -20 237
-29 316 -14 88 18 184 50 199 67 6 8 17 14 24 14 8 0 27 11 43 25 17 14 35 25
41 25 6 0 11 6 11 13 0 6 18 25 40 41 41 31 120 136 120 160 0 8 -15 26 -32
40 -18 15 -38 31 -45 36 -7 6 -16 10 -20 10 -4 0 -23 13 -42 29 l-34 29 23 44
c31 59 39 194 15 258 -9 25 -21 61 -26 80 -6 19 -16 40 -23 45 -6 6 -18 24
-25 41 -7 17 -24 37 -37 43 -25 11 -25 11 -7 43 10 17 25 39 33 48 33 37 52
63 62 86 10 21 7 27 -27 59 -22 19 -45 35 -52 35 -7 0 -13 5 -13 10 0 6 -9 10
-20 10 -11 0 -20 5 -20 10 0 6 -8 10 -19 10 -10 0 -24 6 -30 14 -6 7 -45 19
-86 25 -41 7 -77 17 -80 22 -10 14 -164 10 -230 -7 -33 -9 -72 -18 -87 -21
-15 -3 -33 -11 -39 -19 -6 -8 -19 -14 -28 -14 -9 0 -22 -5 -28 -11 -15 -15
-38 33 -42 86 -2 22 -7 45 -13 52 -5 7 -7 16 -4 22 9 14 -14 18 -75 10z m633
-144 c17 -8 39 -15 49 -15 10 0 21 -4 24 -10 3 -5 15 -10 25 -10 10 0 20 -3
22 -7 2 -5 19 -16 38 -26 19 -10 48 -29 65 -42 l29 -24 -22 -21 c-12 -11 -22
-27 -22 -35 0 -8 -6 -15 -13 -15 -6 0 -19 -15 -26 -32 -23 -51 -38 -63 -59
-46 -9 7 -19 16 -22 20 -17 22 -87 59 -123 64 -23 4 -51 13 -62 20 -26 18
-138 18 -173 0 -15 -7 -46 -17 -69 -21 -24 -4 -43 -11 -43 -15 0 -12 -90 -51
-101 -44 -5 3 -9 21 -9 40 0 19 -7 51 -15 71 -28 66 -18 86 54 118 18 8 41 15
51 15 10 0 23 7 30 15 15 18 84 24 228 19 76 -2 124 -8 144 -19z m-718 -312
c3 -16 11 -66 17 -113 6 -47 17 -96 24 -110 7 -14 15 -68 19 -120 5 -60 12
-100 22 -111 7 -8 14 -25 14 -37 0 -26 20 -72 32 -72 4 0 8 -6 8 -13 0 -7 9
-23 20 -35 11 -12 20 -25 20 -29 0 -4 16 -18 35 -31 19 -12 35 -27 35 -32 0
-6 7 -10 15 -10 9 0 18 -6 21 -14 3 -7 24 -19 47 -27 23 -7 44 -16 47 -19 10
-13 101 -30 162 -30 70 0 121 11 185 41 24 10 45 19 48 19 13 0 122 104 155
148 24 32 26 33 55 21 17 -8 34 -19 38 -26 4 -7 13 -13 19 -13 6 0 27 -12 45
-26 25 -19 32 -29 24 -37 -6 -6 -11 -19 -11 -29 0 -10 -6 -18 -12 -18 -7 0
-24 -18 -37 -39 -22 -37 -117 -119 -153 -133 -10 -4 -18 -11 -18 -16 0 -5 -14
-12 -32 -16 -17 -3 -39 -12 -47 -20 -16 -13 -49 -22 -126 -33 -22 -3 -44 -9
-49 -14 -14 -12 -163 -11 -171 1 -3 6 -19 10 -35 10 -42 0 -124 22 -132 36 -4
7 -23 15 -41 18 -18 3 -40 15 -50 26 -9 11 -26 20 -37 20 -11 0 -20 7 -20 15
0 8 -11 17 -25 21 -14 3 -34 17 -44 30 -10 13 -24 24 -30 24 -6 0 -13 11 -17
25 -3 14 -14 31 -24 38 -9 6 -20 23 -25 36 -4 12 -18 39 -31 58 -13 20 -24 46
-24 59 0 13 -4 24 -10 24 -5 0 -10 13 -10 29 0 17 -4 33 -10 36 -6 4 -10 67
-10 155 0 88 4 151 10 155 6 3 10 19 10 36 0 16 5 29 10 29 6 0 10 14 10 30 0
17 5 30 10 30 6 0 10 9 10 20 0 11 7 23 15 26 8 4 15 12 15 20 0 26 28 14 34
-13z m581 -103 c3 -5 15 -10 26 -10 47 0 128 -75 146 -135 44 -141 -16 -259
-154 -303 l-65 -21 -63 20 c-133 44 -189 153 -153 297 12 52 57 102 111 125
18 8 43 19 57 25 32 14 87 15 95 2z"/>
</g>
</svg>
